<svg width="1630" height="813" viewBox="0 0 1630 813" fill="none" xmlns="http://www.w3.org/2000/svg">
<path fill-rule="evenodd" clip-rule="evenodd" d="M1455.94 808.22C1455.94 808.22 1416.73 784.069 1056.37 460.89C1056.37 460.89 1419.03 693.302 1481.72 741.332C1532.32 780.135 1491.62 814.19 1455.94 808.355V808.22ZM1089.75 436.468C1529.88 638.218 1560.81 634.555 1560.81 634.555C1596.63 629.535 1617.53 594.802 1560.41 566.581C1503.29 538.225 1089.75 436.468 1089.75 436.468ZM1559.05 446.644C1539.79 442.574 1080.12 395.63 1080.12 395.63C1080.12 395.63 1529.61 374.193 1571.67 375.957C1613.73 377.721 1629.33 391.424 1629.74 418.966C1630.15 446.508 1578.18 450.85 1558.92 446.78L1559.05 446.644ZM1608.98 223.593C1613.19 201.071 1583.47 175.564 1540.73 189.946C1498 204.327 1093.41 349.093 1093.41 349.093C1093.41 349.093 1481.85 278.135 1527.71 267.145C1573.57 256.156 1604.77 246.116 1608.84 223.593H1608.98ZM1072.11 319.109C1072.11 319.109 1454.17 14.5173 1485.38 4.61297C1516.58 -5.42703 1543.86 37.8535 1508.72 63.9032C1481.04 84.3902 1123.13 296.994 1071.98 319.109H1072.11Z" fill="black"/>
<path fill-rule="evenodd" clip-rule="evenodd" d="M173.939 3.79892C173.939 3.79892 213.149 27.9492 573.503 351.129C573.503 351.129 210.842 118.716 148.16 70.687C97.5532 32.0195 138.256 -2.17081 173.939 3.79892ZM540.127 375.55C99.9954 173.936 69.0613 177.464 69.0613 177.464C33.2429 182.484 12.3489 217.217 69.4683 245.437C126.588 273.793 540.127 375.55 540.127 375.55ZM70.8251 365.374C90.091 369.445 549.76 416.389 549.76 416.389C549.76 416.389 100.267 437.825 58.2072 436.061C16.0121 434.298 0.409404 420.73 0.00237758 393.188C-0.404649 365.646 51.5591 361.304 70.8251 365.374ZM20.8964 588.425C16.6905 610.947 46.4035 636.454 89.1413 622.073C131.879 607.691 536.464 462.925 536.464 462.925C536.464 462.925 148.025 533.884 102.166 544.873C56.3078 555.863 25.1024 565.903 21.0321 588.425H20.8964ZM557.765 492.91C557.765 492.91 175.567 797.366 144.361 807.406C113.156 817.446 85.8851 774.165 121.025 748.115C148.703 727.628 506.615 515.025 557.765 492.91Z" fill="black"/>
<path d="M1193.68 0H1098.03C1095.85 0 1093.96 0.949729 1092.6 2.57784L416.391 800.351C412.456 804.964 415.713 812.154 421.818 812.154H517.469C519.64 812.154 521.54 811.205 522.896 809.576L777.424 509.462C793.298 490.739 822.332 490.739 838.206 509.462L1092.73 809.576C1094.09 811.205 1096.13 812.154 1098.16 812.154H1193.81C1199.92 812.154 1203.17 804.964 1199.24 800.351L893.155 439.318C876.874 420.187 876.874 392.238 893.155 373.108L1199.1 11.8038C1203.04 7.19081 1199.78 0 1193.68 0Z" fill="black"/>
<path d="M736.314 248.829L527.509 2.57784C526.153 0.949729 524.253 0 522.082 0H426.431C420.326 0 417.069 7.19081 421.004 11.8038L730.616 377.043C733.601 380.434 739.163 380.434 741.741 376.771C769.283 338.239 767.384 285.462 736.314 248.693V248.829Z" fill="black"/>
</svg>
