<svg width="2910" height="947" viewBox="0 0 2910 947" fill="none" xmlns="http://www.w3.org/2000/svg">
<path d="M612.196 518.219C607.28 523.134 608.636 568.22 613.721 575C628.806 595.339 699.317 560.762 686.604 609.577C683.893 620.255 679.316 621.272 668.977 622.12C611.179 626.865 546.94 618.221 488.464 622.12C471.684 623.137 467.616 603.136 473.04 590.424C482.362 568.559 546.092 598.56 547.787 565L546.77 403.47C538.804 378.046 473.04 412.792 471.345 374.656C470.497 354.486 477.786 352.96 496.43 351.435C586.094 344.485 684.571 356.859 775.251 351.435C828.811 353.638 913.898 359.74 916.61 430.589C918.305 475.336 885.762 499.235 846.1 508.557C838.812 510.252 805.421 512.456 804.913 518.897C804.743 522.117 831.015 555.338 835.422 560.084C862.541 588.898 877.287 577.203 909.492 582.288C925.594 584.831 927.628 619.747 905.593 622.289C892.881 623.815 826.608 623.984 816.608 620.933C810.675 619.069 803.726 611.102 799.15 606.187C772.708 578.051 752.877 543.135 723.894 517.032C691.52 517.032 654.57 513.134 622.705 515.846C618.976 516.185 615.416 516.185 612.196 518.388V518.219ZM612.196 395.843C608.297 399.741 608.297 465.336 611.857 470.421C613.213 472.285 614.23 473.472 616.772 473.641C675.079 470.59 737.453 477.709 795.251 473.641C819.828 471.946 852.032 466.183 854.236 436.183C856.778 399.741 816.608 394.826 789.319 393.3C742.708 390.588 668.638 389.402 622.705 393.3C618.976 393.639 615.416 393.639 612.196 395.843Z" fill="#221F1F"/>
<path d="M2155.12 395.504C2151.56 400.758 2168.34 412.284 2172.24 415.504C2184.95 426.013 2209.19 445.674 2222.58 453.302C2225.97 455.166 2230.03 458.048 2234.1 457.709C2239.02 457.2 2299.36 404.826 2300.54 399.741C2303.43 388.554 2270.54 401.436 2267.49 378.385C2264.61 356.689 2272.92 352.96 2292.24 351.435C2325.29 349.062 2377.49 349.231 2410.72 351.435C2426.31 352.452 2437.67 353.977 2437.67 372.622C2437.67 399.911 2411.05 391.775 2393.09 394.148C2385.8 395.165 2377.49 398.555 2370.88 402.114C2351.22 412.792 2298 457.37 2280.37 473.98C2270.2 483.641 2266.98 484.997 2278.34 495.845C2296.98 513.473 2355.97 557.881 2378.17 570.423C2402.07 583.814 2412.92 578.559 2436.48 582.288C2452.24 584.661 2452.92 618.221 2437.67 621.272H2245.12C2230.71 616.865 2230.2 585.169 2248.34 582.288C2255.8 581.102 2290.03 586.356 2286.48 573.983L2204.1 512.117C2199.69 512.117 2189.35 521.609 2185.12 524.998C2171.39 536.016 2149.01 554.83 2136.98 567.033C2134.95 569.067 2133.08 571.44 2131.73 573.983L2131.05 576.864C2132.74 584.661 2156.81 578.559 2160.54 591.441C2164.95 606.695 2160.71 620.594 2143.93 622.12C2108.5 625.34 2039.18 625.171 2003.42 622.12C1994.26 621.272 1987.99 619.916 1985.45 610.085C1982.57 599.407 1984.43 584.153 1997.65 582.119C2065.96 588.898 2109.86 522.795 2162.91 490.76C2166.98 486.692 2165.46 479.913 2161.05 476.692C2126.3 457.2 2075.79 399.233 2037.15 394.148C2012.23 390.758 1989.52 401.775 1994.43 364.486C1995.96 352.96 2007.65 352.282 2017.49 351.435C2062.23 348.045 2139.18 348.045 2183.93 351.435C2202.41 352.791 2212.91 359.062 2208 379.741C2202.74 402.283 2170.71 389.232 2154.78 395.673L2155.12 395.504Z" fill="#221F1F"/>
<path d="M1852.57 549.745V404.487C1852.57 404.487 1848.67 398.385 1847.65 397.368C1832.74 384.486 1784.77 408.555 1786.63 370.588C1787.48 354.147 1797.31 352.282 1811.55 351.265C1846.97 348.553 1910.7 348.214 1945.96 351.265C1957.31 352.282 1966.47 353.977 1968.67 366.689C1971.21 381.605 1965.28 391.605 1950.03 393.3C1922.23 396.351 1905.62 382.114 1902.91 420.25C1898.5 481.269 1906.3 547.372 1903.08 608.899C1900.53 629.069 1849.18 623.476 1836.97 616.696C1758.67 554.999 1686.29 481.947 1608.32 420.42C1604.25 417.199 1593.41 407.368 1589.17 407.368L1584.59 410.758V568.389C1592.73 593.136 1630.02 574.491 1644.43 584.831C1655.61 592.797 1652.9 622.459 1635.44 621.95C1587.31 617.713 1530.02 627.374 1483.07 621.95C1468.32 620.255 1466.12 607.882 1468.15 595C1472.73 566.694 1526.46 597.204 1533.24 568.05L1534.08 410.589C1529.85 372.622 1466.62 415.504 1467.81 372.452C1468.32 354.994 1474.59 352.791 1491.03 351.435C1519 349.062 1567.3 349.231 1595.27 351.435C1616.97 353.13 1620.53 357.876 1636.29 370.588C1706.29 427.03 1771.38 489.913 1840.87 546.863L1852.74 549.914L1852.57 549.745Z" fill="#221F1F"/>
<path d="M1253.57 388.893C1252.21 387.537 1249.5 380.588 1249.16 378.215C1246.45 357.537 1255.43 352.621 1274.08 351.265C1309.16 348.553 1380.01 347.706 1414.25 351.604C1431.71 353.638 1439.84 362.96 1434.25 381.096C1425.1 410.589 1371.03 372.791 1367.3 412.453C1361.37 475.845 1383.23 545.846 1327.3 595C1271.36 643.984 1127.29 644.324 1067.97 601.611C1003.05 554.83 1022.88 470.929 1017.46 401.605C1011.87 387.876 976.781 394.995 963.391 393.47C947.12 391.605 942.713 384.486 944.238 368.384C945.594 353.638 954.238 352.452 967.459 351.435C1011.02 347.706 1088.14 348.045 1131.87 351.435C1146.95 352.621 1156.79 355.164 1156.79 372.622C1156.79 411.945 1093.73 380.588 1083.06 401.097C1080.68 405.504 1080.85 409.911 1080.51 414.657C1077.97 447.878 1077.97 517.88 1092.21 547.372C1114.41 593.475 1187.46 595.848 1231.7 589.915C1289.5 581.949 1313.57 552.796 1317.3 494.998C1318.65 472.624 1319.33 434.657 1317.3 412.623C1313.91 376.181 1270.18 404.656 1253.57 389.063V388.893Z" fill="#221F1F"/>
<path d="M224.389 477.37C227.271 479.913 227.101 486.014 224.728 488.896C222.525 491.608 215.576 492.625 211.677 493.303C149.303 505.337 79.1315 506.523 15.9096 517.88C3.02789 518.388 0.824446 507.54 0.146463 498.727C-0.53152 488.048 0.65495 482.794 14.3841 481.269C33.0287 479.065 56.7581 480.591 75.9111 479.743C115.912 478.218 155.574 476.184 195.745 475.506C203.541 475.506 217.61 471.268 224.389 477.201V477.37Z" fill="#221F1F"/>
<path d="M2690.55 470.251H2898.19C2915.3 472.285 2912.93 506.354 2894.63 506.015C2832.42 499.235 2769.03 496.693 2706.82 489.574C2698.86 488.726 2682.76 488.387 2681.23 480.082C2680.72 475.675 2685.47 471.099 2690.55 470.082V470.251Z" fill="#221F1F"/>
<path d="M2898.52 420.25C2896.49 422.284 2890.56 423.64 2887.34 424.148L2691.57 455.675C2675.64 453.81 2676.49 440.759 2690.55 436.352L2883.44 388.215C2898.69 385.673 2904.63 413.979 2898.52 420.081V420.25Z" fill="#221F1F"/>
<path d="M18.113 394.148C25.2318 392.792 33.5371 395.673 40.4865 397.029C99.471 408.555 158.456 426.691 217.44 438.895C234.22 443.471 230.661 460.082 212.355 457.2L15.0621 428.386C0.146463 425.504 7.26529 396.182 17.9435 394.148H18.113Z" fill="#221F1F"/>
<path d="M2685.64 505.337C2689.71 504.659 2694.96 506.693 2699.03 507.54C2760.05 521.27 2819.37 542.456 2880.22 557.033C2899.2 561.101 2884.97 595.678 2867.34 590.593L2682.59 522.795C2674.45 518.727 2676.32 506.693 2685.47 505.337H2685.64Z" fill="#221F1F"/>
<path d="M216.084 511.1C222.525 510.252 229.983 510.591 231.508 517.202C233.373 525.507 226.932 528.558 219.305 532.117C165.574 557.372 101.505 575.508 46.7578 600.255C29.6387 606.695 14.3841 573.983 30.6557 568.22L216.084 511.1Z" fill="#221F1F"/>
<path d="M56.4191 315.163C62.5209 314.146 66.2498 316.688 71.3347 318.892C123.539 340.757 174.049 374.995 226.593 397.538C241.17 404.995 240.492 423.131 219.983 418.555L47.0968 346.519C31.8422 341.435 46.4188 316.858 56.5886 315.163H56.4191Z" fill="#221F1F"/>
<path d="M2843.78 310.925C2856.15 308.891 2873.95 333.299 2860.73 340.926L2694.96 413.47C2675.13 423.131 2661.23 408.385 2679.54 396.182L2843.78 311.095V310.925Z" fill="#221F1F"/>
<path d="M2673.94 546.355C2677.5 545.846 2681.74 547.88 2684.96 549.236L2840.05 633.645C2855.3 642.629 2832.42 670.426 2817 660.256L2666.48 563.643C2662.42 558.389 2666.49 547.541 2673.94 546.694V546.355Z" fill="#221F1F"/>
<path d="M234.39 552.118C243.034 551.948 249.814 564.152 243.881 569.915L97.7761 668.731C86.5893 673.816 76.9281 665.341 72.5212 657.375C67.7753 648.561 69.6397 646.188 77.6061 640.425C120.319 609.577 181.846 585.508 225.915 554.66C227.949 553.643 232.186 551.948 234.22 551.948L234.39 552.118Z" fill="#221F1F"/>
<path d="M109.641 251.771C116.251 250.076 120.319 253.127 125.065 256.348C168.286 285.67 208.118 323.807 250.661 354.316C261.678 364.994 248.627 382.622 233.203 371.944L94.8946 276.179C87.0978 269.738 103.369 253.297 109.471 251.771H109.641Z" fill="#221F1F"/>
<path d="M2787 248.89C2800.05 246.347 2818.69 263.297 2809.03 273.297L2666.32 372.452C2651.57 375.164 2648.01 355.333 2658.35 348.723C2694.28 322.451 2727.16 293.128 2762.42 266.178C2766.83 262.788 2783.27 249.568 2787 248.89Z" fill="#221F1F"/>
<path d="M2650.55 592.797C2656.32 591.441 2660.21 594.661 2664.28 597.543C2704.62 624.831 2740.89 664.663 2781.57 692.63C2797.51 703.139 2774.11 725.003 2759.88 718.054L2642.93 612.797C2637.67 607.034 2642.93 594.661 2650.55 592.797Z" fill="#221F1F"/>
<path d="M254.39 599.916C270.492 595.678 276.425 614.323 266.594 622.798L156.083 725.003C147.269 731.105 129.641 716.529 128.963 709.918C128.624 706.02 134.048 700.596 136.93 697.545C159.473 673.646 205.067 637.883 232.525 616.357C235.576 613.984 253.204 600.085 254.56 599.746L254.39 599.916Z" fill="#221F1F"/>
<path d="M171.168 201.092C180.66 198.888 183.371 202.617 189.134 207.702C222.016 237.025 250.153 275.84 282.526 306.179C290.154 314.485 279.815 331.943 266.424 326.858C264.729 326.18 258.458 320.248 256.424 318.553C221.677 287.874 190.999 253.636 156.761 222.448C149.642 215.33 163.71 202.787 171.168 201.092Z" fill="#221F1F"/>
<path d="M2725.47 198.211C2736.66 196.177 2754.79 209.736 2747.33 219.567C2714.79 250.076 2684.45 284.823 2651.06 314.315C2648.86 316.349 2641.23 323.468 2639.37 324.146C2625.3 329.57 2615.13 310.586 2624.62 301.772C2656.65 272.958 2683.77 232.11 2715.98 204.312C2718.69 201.939 2721.23 199.058 2725.47 198.211Z" fill="#221F1F"/>
<path d="M2615.64 640.764C2623.09 638.9 2625.81 642.12 2630.21 646.188C2662.25 673.985 2688.86 715.342 2720.72 744.326C2729.54 756.36 2702.76 773.31 2691.74 761.784C2667.5 730.088 2635.64 700.088 2612.42 668.222C2609.36 664.154 2604.11 659.07 2604.45 653.985C2604.79 650.425 2611.4 641.781 2615.64 640.764Z" fill="#221F1F"/>
<path d="M302.527 649.408C309.815 655.171 310.832 663.815 304.9 670.765C277.442 698.901 255.746 736.36 228.288 763.648C220.152 771.615 217.779 773.818 206.084 768.394C193.033 762.293 192.185 756.869 199.643 746.529C222.525 714.495 259.475 683.477 284.052 651.612C290.323 646.357 294.9 643.307 302.696 649.408H302.527Z" fill="#221F1F"/>
<path d="M241.17 158.549C245.068 158.04 250.492 160.921 253.034 163.464L324.731 259.229C331.68 272.619 315.239 289.738 301.002 275.162C273.204 246.856 250.492 208.211 223.711 178.549C216.593 170.583 233.373 159.565 241.339 158.549H241.17Z" fill="#221F1F"/>
<path d="M2585.13 274.823C2579.19 270.416 2577.67 263.636 2580.89 257.365C2604.79 229.059 2624.45 190.075 2649.71 163.464C2652.76 160.243 2654.79 157.193 2660.21 156.684C2670.89 155.837 2689.37 167.532 2680.04 177.871C2653.94 206.685 2632.42 243.635 2605.81 271.433C2599.53 278.043 2594.11 281.602 2585.13 274.653V274.823Z" fill="#221F1F"/>
<path d="M2572.41 685.85C2579.36 684.663 2582.92 688.392 2586.82 692.799C2611.06 718.902 2629.7 757.208 2653.09 784.666C2660.72 796.361 2634.45 810.26 2624.62 800.26L2560.72 706.359C2555.63 699.41 2563.77 687.375 2572.25 685.85H2572.41Z" fill="#221F1F"/>
<path d="M335.918 691.443C345.24 689.07 354.562 699.071 356.088 706.02C338.291 740.089 314.392 771.954 292.866 804.497C283.035 814.667 258.628 801.785 263.882 789.92C286.425 761.954 304.73 724.495 328.29 697.884C329.985 696.02 333.206 692.121 335.918 691.613V691.443Z" fill="#221F1F"/>
<path d="M320.833 127.87L375.58 217.533C380.834 227.194 366.766 241.262 354.732 236.517C352.359 235.5 349.647 231.601 347.952 229.567C327.273 203.804 312.019 169.735 292.188 142.955C286.933 130.921 310.154 119.225 320.833 127.87Z" fill="#221F1F"/>
<path d="M2589.03 123.463C2599.53 121.429 2617.84 130.412 2611.57 141.26L2555.8 229.398C2546.48 243.805 2524.45 228.72 2528.85 216.516L2581.23 128.378C2582.92 126.005 2585.64 124.141 2588.86 123.463H2589.03Z" fill="#221F1F"/>
<path d="M2519.19 728.224C2523.6 727.207 2529.36 727.037 2532.07 730.766L2583.77 818.057C2588.01 831.277 2562.92 841.447 2553.26 829.752C2544.45 819.243 2513.43 762.462 2508.35 749.241C2504.96 740.258 2507.16 730.766 2519.19 728.054V728.224Z" fill="#221F1F"/>
<path d="M336.935 833.142C332.358 829.074 332.697 826.193 334.223 821.277C337.443 810.599 356.257 781.446 363.206 769.75C367.274 762.801 382.36 733.987 389.139 732.461C396.767 730.597 412.53 741.614 409.309 749.58C395.072 774.835 383.376 804.328 367.783 828.735C361.851 838.057 359.139 841.786 345.918 837.718C343.545 837.04 338.63 834.667 336.935 833.311V833.142Z" fill="#221F1F"/>
<path d="M377.614 96.6825C385.749 95.1571 390.156 97.0215 394.394 102.954C409.14 123.124 417.276 156.854 431.852 178.38C437.276 191.261 415.92 205.668 404.902 192.617C398.97 185.668 366.766 124.48 364.223 115.836C361.173 105.496 364.732 99.0555 377.614 96.6825Z" fill="#221F1F"/>
<path d="M2476.99 190.244C2472.07 185.668 2472.41 180.922 2473.77 175.159C2476.14 165.498 2502.92 111.598 2509.36 102.445C2514.62 94.8181 2519.19 93.4621 2529.19 96.0045C2540.04 98.7165 2542.75 102.784 2540.89 112.107C2538.85 122.276 2511.57 170.922 2504.45 182.786C2498.01 193.465 2491.06 203.295 2476.99 190.244Z" fill="#221F1F"/>
<path d="M2464.28 764.835C2471.23 763.818 2473.94 767.377 2476.99 771.784C2483.26 781.107 2510.89 836.871 2512.58 846.024C2514.28 855.176 2504.96 860.431 2495.12 861.617C2487.33 862.465 2484.11 858.905 2480.55 853.481C2473.43 842.803 2452.75 797.209 2449.53 785.174C2446.99 775.683 2452.41 766.53 2464.28 764.835Z" fill="#221F1F"/>
<path d="M445.751 770.428C458.633 767.208 469.65 777.886 467.446 788.903C465.751 797.209 442.192 849.583 436.768 857.38C427.106 871.787 403.377 861.787 404.733 850.091L438.971 776.191C440.327 774.157 442.7 771.106 445.412 770.428H445.751Z" fill="#221F1F"/>
<path d="M450.836 72.7836C458.802 71.7666 461.853 73.4616 465.751 79.2245C470.328 85.8348 491.006 136.175 492.362 143.972C495.244 159.057 473.209 170.074 464.226 156.515C458.463 147.87 437.785 100.75 435.412 90.7502C432.53 79.394 437.615 74.4786 450.836 72.6141V72.7836Z" fill="#221F1F"/>
<path d="M2445.97 71.2581C2455.63 68.8852 2473.94 76.5125 2469.7 87.0213C2458.85 106.852 2452.92 134.311 2441.39 153.294C2431.9 168.888 2411.05 155.837 2411.73 145.158C2412.07 139.734 2435.46 81.7669 2439.19 76.682C2440.55 74.9871 2443.94 71.7666 2445.97 71.2581Z" fill="#221F1F"/>
<path d="M2437.67 878.397C2436.31 879.753 2429.36 882.296 2426.99 882.635C2414.44 884.669 2411.39 881.109 2406.99 872.126C2402.58 863.143 2387.33 824.159 2386.65 816.023C2385.8 807.209 2391.73 801.277 2401.73 799.073C2411.73 796.87 2414.78 804.158 2418 810.768C2423.6 821.955 2437.67 854.837 2439.7 865.685C2440.38 869.414 2440.89 875.346 2438 878.397H2437.67Z" fill="#221F1F"/>
<path d="M508.973 802.802C517.787 800.768 531.685 810.26 531.007 818.565C530.499 823.82 512.193 873.99 508.973 879.075C501.176 891.618 475.413 886.194 477.955 869.583C479.142 861.787 496.43 817.887 501.007 810.26C502.363 807.887 505.922 803.48 508.973 802.802Z" fill="#221F1F"/>
<path d="M509.99 57.3595C517.278 51.2577 533.38 50.0712 538.635 59.7324C542.533 67.0208 555.415 104.988 556.093 112.615C557.618 129.395 535.414 137.531 526.939 123.124C517.787 107.7 514.566 82.2754 506.43 65.6648C506.261 63.2919 508.125 58.7155 509.82 57.19L509.99 57.3595Z" fill="#221F1F"/>
<path d="M2374.44 51.4271C2387.49 49.2237 2397.66 56.0035 2396.48 67.3598C2395.8 74.6481 2381.39 114.988 2377.33 121.598C2368.68 136.006 2346.65 126.344 2348.17 111.09C2349.02 102.784 2361.05 67.3597 2365.12 59.224C2366.99 55.6645 2369.36 52.2746 2374.27 51.4271H2374.44Z" fill="#221F1F"/>
<path d="M2347.83 831.108C2349.87 832.803 2352.92 841.786 2354.1 844.837C2356.99 852.464 2368.68 884.669 2368.17 890.601C2367.49 900.262 2343.6 907.042 2336.48 895.008C2333.09 889.075 2321.39 850.6 2321.39 844.159C2321.39 832.294 2339.7 824.667 2347.66 831.108H2347.83Z" fill="#221F1F"/>
<path d="M573.89 832.464C584.06 832.803 596.094 837.379 596.094 847.04C596.094 852.464 584.737 891.448 581.856 897.042C575.754 909.245 550.16 905.008 551.008 889.245C551.347 882.126 562.364 846.701 565.923 839.922C567.618 836.701 570.33 834.159 573.89 832.464Z" fill="#221F1F"/>
<path d="M608.806 38.8845C613.043 42.6134 623.722 84.9873 622.535 91.2587C620.671 101.089 598.467 108.547 592.534 94.3096C590.331 89.0552 579.144 51.2576 579.314 47.8677C580.161 37.359 601.179 32.4436 608.806 39.054V38.8845Z" fill="#221F1F"/>
<path d="M2299.53 36.003C2309.02 33.6301 2322.58 36.8505 2323.43 46.1728C2323.93 52.7831 2314.61 87.1908 2311.39 93.8011C2304.95 106.513 2282.41 99.3945 2281.73 87.0213C2281.39 80.4109 2289.19 50.2407 2292.24 43.6303C2293.59 40.7489 2295.97 36.681 2299.7 35.8335L2299.53 36.003Z" fill="#221F1F"/>
<path d="M2267.83 856.532C2274.78 855.346 2279.53 855.854 2282.92 861.448C2285.63 865.854 2294.27 898.567 2294.61 903.822C2295.12 917.212 2270.2 921.788 2263.59 910.262C2260.71 905.347 2252.58 871.617 2253.76 867.041C2254.95 862.465 2262.75 857.38 2268 856.532H2267.83Z" fill="#221F1F"/>
<path d="M640.502 859.244C649.993 856.871 664.231 864.499 664.231 873.821C664.231 878.058 656.773 908.567 654.57 912.127C649.146 921.619 627.959 919.076 625.078 911.279C622.535 905.008 631.179 867.38 635.925 862.465C637.112 861.278 638.637 859.753 640.502 859.244Z" fill="#221F1F"/>
<path d="M667.112 23.4603C673.553 22.6129 680.503 22.9518 684.062 28.2062C686.265 31.5961 692.028 57.6985 692.198 62.2749C692.537 75.1566 669.146 81.9364 662.875 72.9531C658.977 67.3597 652.027 34.1386 655.248 28.7147C657.96 26.0028 663.214 23.9688 667.282 23.4603H667.112Z" fill="#221F1F"/>
<path d="M2222.24 24.8163C2228.17 20.7484 2247.15 22.2739 2249.69 29.5622C2251.56 34.9861 2244.78 67.8682 2240.88 72.2751C2234.1 79.7329 2214.44 73.1226 2212.41 63.8003C2211.39 59.0545 2218.34 27.3587 2222.24 24.6468V24.8163Z" fill="#221F1F"/>
<path d="M2198 880.431C2202.07 879.753 2207.66 879.414 2211.05 881.448C2216.3 884.669 2221.39 914.5 2220.03 920.263C2218 929.076 2193.93 933.822 2188.68 918.737C2184.27 906.534 2178.17 883.991 2198 880.431Z" fill="#221F1F"/>
<path d="M708.639 883.313C718.3 880.77 732.538 886.363 733.894 895.347C734.402 898.906 730.504 919.415 728.809 922.805C723.216 933.653 700.503 930.602 697.961 921.449C696.435 915.517 701.52 885.177 708.808 883.313H708.639Z" fill="#221F1F"/>
<path d="M738.64 13.4601C753.216 11.2566 757.454 13.9686 760.335 25.4943C763.556 39.054 764.573 54.6476 743.047 54.9866C730.165 55.1561 728.131 37.8675 727.622 29.3927C727.114 21.0874 728.131 15.155 738.809 13.6296L738.64 13.4601Z" fill="#221F1F"/>
<path d="M2156.47 12.1041C2164.61 11.2566 2175.62 15.155 2176.81 22.6129C2177.49 26.3418 2174.44 43.6303 2172.74 47.1898C2166.81 59.9019 2143.76 52.1051 2142.07 42.1049C2141.39 38.037 2143.76 22.2739 2145.79 18.545C2147.83 14.816 2152.23 12.6126 2156.64 12.1041H2156.47Z" fill="#221F1F"/>
<path d="M2141.39 903.144C2146.13 911.618 2152.57 933.483 2137.32 936.365C2122.06 939.246 2115.45 936.026 2113.76 923.144C2111.39 905.516 2121.22 897.72 2141.39 903.144Z" fill="#221F1F"/>
<path d="M774.573 934.67C768.132 929.076 770.844 903.822 783.217 903.313C802.201 902.635 806.268 913.313 803.896 927.212C801.862 939.755 782.539 941.45 774.573 934.67Z" fill="#221F1F"/>
<path d="M816.947 4.98529C835.591 3.79882 839.659 25.8333 827.117 32.1046C798.641 46.3423 789.488 6.84975 816.947 4.98529Z" fill="#221F1F"/>
<path d="M2079.86 4.98529C2098.67 1.42588 2105.45 11.7651 2101.56 26.1723C2098 39.5624 2074.61 33.9691 2071.05 24.4773C2068.5 17.6975 2070.37 6.68025 2079.86 4.98529Z" fill="#221F1F"/>
<path d="M2044.27 924.331C2050.2 918.907 2069.86 916.364 2072.06 926.026C2078.84 956.026 2023.93 942.975 2044.27 924.331Z" fill="#221F1F"/>
<path d="M855.083 921.28C859.829 920.771 870.677 923.992 873.897 927.381C892.203 946.534 837.286 952.297 846.27 928.059C847.286 925.178 851.524 921.788 855.083 921.28Z" fill="#221F1F"/>
<path d="M885.084 0.747897C908.813 -3.82849 911.864 13.9686 894.406 17.0195C871.863 20.9179 871.524 3.29033 885.084 0.747897Z" fill="#221F1F"/>
<path d="M2004.94 0.747897C2011.38 -0.777566 2025.62 -0.0995822 2027.15 6.84975C2030.54 23.4603 1997.65 16.85 1998.84 6.84975C1999.01 4.6463 2002.57 1.25638 2005.11 0.747897H2004.94Z" fill="#221F1F"/>
<path d="M1993.42 944.67C1989.52 947.89 1972.23 947.891 1975.79 940.263C1979.35 932.636 2002.57 937.212 1993.42 944.67Z" fill="#221F1F"/>
<path d="M937.119 940.772C938.306 946.365 926.272 946.026 925.424 942.806C926.441 937.212 932.712 939.755 937.119 940.772Z" fill="#221F1F"/>
</svg>
